<mxfile host="app.diagrams.net" agent="Mozilla/5.0 (Windows NT 10.0; Win64; x64) AppleWebKit/537.36 (KHTML, like Gecko) Chrome/136.0.0.0 Safari/537.36 Edg/136.0.0.0" version="27.0.5">
  <diagram name="第 1 页" id="HXSib4Czajo3BjWT_cM1">
    <mxGraphModel dx="915" dy="596" grid="1" gridSize="10" guides="1" tooltips="1" connect="1" arrows="1" fold="1" page="1" pageScale="1" pageWidth="827" pageHeight="1169" math="0" shadow="0">
      <root>
        <mxCell id="0" />
        <mxCell id="1" parent="0" />
        <mxCell id="pUumUs4CIRJKlrT6NEAu-2" value="Topic+" style="text;html=1;align=center;verticalAlign=middle;whiteSpace=wrap;rounded=0;fontSize=15;" vertex="1" parent="1">
          <mxGeometry x="200" y="270" width="60" height="30" as="geometry" />
        </mxCell>
        <mxCell id="pUumUs4CIRJKlrT6NEAu-4" value="" style="strokeWidth=2;html=1;shape=mxgraph.flowchart.annotation_1;align=left;pointerEvents=1;" vertex="1" parent="1">
          <mxGeometry x="260" y="275" width="50" height="295" as="geometry" />
        </mxCell>
        <mxCell id="pUumUs4CIRJKlrT6NEAu-5" value="Service:" style="text;html=1;align=center;verticalAlign=middle;whiteSpace=wrap;rounded=0;fontSize=15;" vertex="1" parent="1">
          <mxGeometry x="290" y="290" width="70" height="30" as="geometry" />
        </mxCell>
        <mxCell id="pUumUs4CIRJKlrT6NEAu-6" value="" style="strokeWidth=2;html=1;shape=mxgraph.flowchart.annotation_1;align=left;pointerEvents=1;" vertex="1" parent="1">
          <mxGeometry x="360" y="300" width="50" height="270" as="geometry" />
        </mxCell>
        <mxCell id="pUumUs4CIRJKlrT6NEAu-8" value="Service id: My id" style="text;html=1;align=center;verticalAlign=middle;whiteSpace=wrap;rounded=0;fontSize=15;" vertex="1" parent="1">
          <mxGeometry x="379" y="320" width="121" height="30" as="geometry" />
        </mxCell>
        <mxCell id="pUumUs4CIRJKlrT6NEAu-9" value="Properties:" style="text;html=1;align=center;verticalAlign=middle;whiteSpace=wrap;rounded=0;fontSize=15;" vertex="1" parent="1">
          <mxGeometry x="369" y="380" width="121" height="30" as="geometry" />
        </mxCell>
        <mxCell id="pUumUs4CIRJKlrT6NEAu-10" value="" style="strokeWidth=2;html=1;shape=mxgraph.flowchart.annotation_1;align=left;pointerEvents=1;" vertex="1" parent="1">
          <mxGeometry x="480" y="390" width="50" height="180" as="geometry" />
        </mxCell>
        <mxCell id="pUumUs4CIRJKlrT6NEAu-11" value="Key1 : Value1" style="text;html=1;align=center;verticalAlign=middle;whiteSpace=wrap;rounded=0;fontSize=15;" vertex="1" parent="1">
          <mxGeometry x="490" y="400" width="121" height="30" as="geometry" />
        </mxCell>
        <mxCell id="pUumUs4CIRJKlrT6NEAu-12" value="Key2 : Value2" style="text;html=1;align=center;verticalAlign=middle;whiteSpace=wrap;rounded=0;fontSize=15;" vertex="1" parent="1">
          <mxGeometry x="490" y="440" width="121" height="30" as="geometry" />
        </mxCell>
        <mxCell id="pUumUs4CIRJKlrT6NEAu-13" value="Key3 : Value3" style="text;html=1;align=center;verticalAlign=middle;whiteSpace=wrap;rounded=0;fontSize=15;" vertex="1" parent="1">
          <mxGeometry x="490" y="480" width="121" height="30" as="geometry" />
        </mxCell>
        <mxCell id="pUumUs4CIRJKlrT6NEAu-14" value="" style="endArrow=none;dashed=1;html=1;rounded=0;dashPattern=1 1;strokeWidth=4;" edge="1" parent="1">
          <mxGeometry width="50" height="50" relative="1" as="geometry">
            <mxPoint x="550.3" y="550" as="sourcePoint" />
            <mxPoint x="550.5999999999999" y="520" as="targetPoint" />
          </mxGeometry>
        </mxCell>
      </root>
    </mxGraphModel>
  </diagram>
</mxfile>
